# xmcd
#
# Track frame offsets:
#	150
#	25372
#	41475
#	69717
#	87017
#	98462
#	129850
#	142920
#	156920
#	168587
#	183777
#	213032
#	238255
#	252430
#	267857
#	282692
#
# Disc length: 4069 seconds
#
# Revision: 2
# Processed by: cddbd v1.5.2PL0 Copyright (c) Steve Scherf et al.
# Submitted via: EasyCDDAExtractor 16.0.8.2
#
DISCID=db0fe310
DTITLE=Συλλογικός δίσκος - Ρεμπέτικο στου Θωμά 6-Πατριδογνωσία
DYEAR=2001
DGENRE=Ποικίλη
TTITLE0=Άνευ ερμηνευτού - Το μινόρε της Αμέρικα [Θ. Παναγιώτου]
TTITLE1=Άνευ ερμηνευτού - Υπόγειον η Σμύρνη [Θ. Παναγιώτου]
TTITLE2=Μπαγιώκης Γιώργος - Ο Μακεδών και το γιαγκίνι [ανώνυμος]
TTITLE3=Λεονάρδου Σωτηρία - Δική μου είναι η Ελλάς [Γ. Ιωαννίδης-Σαββίδης]
TTITLE4=Άνευ ερμηνευτού - Έλληνας [Θ. Παναγιώτου]
TTITLE5=Τσίγκος Κώστας-Φέρρης Κώστας - Κακούργα πεθερά [Μοντανάρης]
TTITLE6=Τσαουσάκης Δημήτρης - Πέντε Έλληνες στον Άδη [Γ. Παπαϊωάννου-Ν.Μάθεσης
TTITLE6=]
TTITLE7=Χορωδία - Ο καϋμός της κυρα Κώσταινας [Π. Τούντας]
TTITLE8=Ξηντάρης Γιώργος - Το Δώδεκα [Μ. Βαμβακάρης]
TTITLE9=Χορωδία - Στης Αλβανίας τα βουνά [Α. Χατζηχρήστος-Γ.Φωτίδας]
TTITLE10=Χριστοπούλου Χρυσούλα-χορωδία - Νύχτωσε χωρίς φεγγάρι [Α. Καλδάρας]
TTITLE11=Άνευ ερμηνευτού - Μαγεμένος [διασκ. Θ. Παναγιώτου]
TTITLE12=Τσίγκος Κώστας-Χριστοπούλου Χρυσούλα - Η πλημμύρα [Μ. Βαμβακάρης]
TTITLE13=Χριστοπούλου Χρυσούλα-Ξηντάρης Γιώργος - Τα νησιά [Β. Τσιτσάνης]
TTITLE14=Παλιατσάρας Κωνσταντίνος - Άλα [Μ. Σουγιούλ-Α. Σακελλάριος-Γιαννακόπο
TTITLE14=υλος]
TTITLE15=Άνευ ερμηνευτού - Το μινόρε του Λιώση [Λιώσης]
EXTD=
EXTT0=
EXTT1=
EXTT2=
EXTT3=
EXTT4=
EXTT5=
EXTT6=
EXTT7=
EXTT8=
EXTT9=
EXTT10=
EXTT11=
EXTT12=
EXTT13=
EXTT14=
EXTT15=
PLAYORDER=
